<?xml version="1.0" encoding="utf-8"?>
<!-- Svg Vector Icons : http://www.onlinewebfonts.com/icon -->
<!DOCTYPE svg PUBLIC "-//W3C//DTD SVG 1.1//EN" "http://www.w3.org/Graphics/SVG/1.1/DTD/svg11.dtd">
<svg version="1.1" xmlns="http://www.w3.org/2000/svg" xmlns:xlink="http://www.w3.org/1999/xlink" x="0px" y="0px" viewBox="0 0 1000 1000" enable-background="new 0 0 1000 1000" xml:space="preserve">
<metadata> Svg Vector Icons : http://www.onlinewebfonts.com/icon </metadata>
<g><path d="M885.8,234.7h-20.9H760.7l-63.3-89.1c-14.9-20.6-31.8-36-54.4-36H357.1c-22.6,0-39.3,15.6-53.5,36l-64.3,89.1H114.3C46.6,234.7,10,283.6,10,358.6v396.1c0,75,54.9,135.8,122.5,135.8h735c67.7,0,122.5-60.8,122.5-135.8V358.6C990,283.6,953.4,234.7,885.8,234.7L885.8,234.7z M948.3,754.6c0,51.9-36.2,94.1-80.8,94.1h-735c-44.5,0-80.8-42.2-80.8-94.1V358.6c0-54.6,21-82.2,62.6-82.2h125.1c13.4,0,26-6.4,33.8-17.3l64.7-89.7c7.9-11.4,15.1-18.1,19.2-18.1h285.8c4.5,0,12,6.8,20.4,18.5l63.3,89.1c7.8,11,20.5,17.5,34,17.5h104.3h20.9c20.3,0,35,6,45.2,18.5c11.4,14,17.4,36,17.4,63.7L948.3,754.6L948.3,754.6z"/><path d="M489.6,303.5c-137.4,0-249.3,111.8-249.3,249.3c0,137.4,111.8,249.3,249.3,249.3c137.4,0,249.3-111.8,249.3-249.3C738.9,415.3,627,303.5,489.6,303.5z M489.6,761.5c-115.1,0-208.7-93.6-208.7-208.7c0-115.1,93.6-208.7,208.7-208.7c115.1,0,208.7,93.6,208.7,208.7C698.3,667.9,604.7,761.5,489.6,761.5z"/><path d="M489.6,777"/><path d="M294.5,171.9H131c-5,0-9.1,4.1-9.1,9.1v22.3c0,5,4.1,9.1,9.1,9.1h163.4c5,0,9.1-4.1,9.1-9.1V181C303.6,175.9,299.5,171.9,294.5,171.9L294.5,171.9z"/><path d="M162,256.8v-74.7c0-5-4.1-9.1-9.1-9.1h-22.3c-5,0-9.1,4.1-9.1,9.1v74.7c0,5,4.1,9.1,9.1,9.1h22.3C157.9,266,162,261.9,162,256.8L162,256.8z"/><path d="M492.8,389.3c-88.4,0-160.3,71.9-160.3,160.3c0,88.4,71.9,160.3,160.3,160.3c88.4,0,160.3-71.9,160.3-160.3C653.1,461.2,581.2,389.3,492.8,389.3z M492.8,683.8c-74,0-134.2-60.2-134.2-134.2c0-74,60.2-134.2,134.2-134.2c74,0,134.2,60.2,134.2,134.2C627,623.6,566.8,683.8,492.8,683.8z"/><path d="M826,326.7c20.6,0,37.1,16.9,37.1,38c0,20.6-16.5,37.1-37.1,37.1c-21.1,0-38-16.6-38-37.1C788.1,343.6,804.9,326.7,826,326.7L826,326.7z"/></g>
</svg>